<svg width="28" height="21" viewBox="0 0 28 21" fill="none" xmlns="http://www.w3.org/2000/svg">
<path d="M28 2.20437C28 1.44996 27.3882 0.839569 26.6352 0.839569H15.6482C15.2863 0.839569 14.9391 0.98336 14.6832 1.23931C14.4272 1.49526 14.2834 1.8424 14.2834 2.20437C14.2834 2.56634 14.4272 2.91348 14.6832 3.16943C14.9391 3.42538 15.2863 3.56917 15.6482 3.56917H26.6352C26.9972 3.56917 27.3443 3.42538 27.6003 3.16943C27.8562 2.91348 28 2.56634 28 2.20437Z" fill="black"/>
<path d="M28 10.4412C28 9.68674 27.3882 9.07635 26.6352 9.07635H1.93165C1.56968 9.07635 1.22254 9.22015 0.966587 9.4761C0.710638 9.73204 0.566845 10.0792 0.566845 10.4412C0.566845 10.8031 0.710638 11.1503 0.966587 11.4062C1.22254 11.6622 1.56968 11.806 1.93165 11.806H26.6352C26.9972 11.806 27.3443 11.6622 27.6003 11.4062C27.8562 11.1503 28 10.8031 28 10.4412Z" fill="black"/>
<path d="M26.6352 17.3132C26.9972 17.3132 27.3443 17.457 27.6003 17.7129C27.8562 17.9689 28 18.316 28 18.678C28 19.0399 27.8562 19.3871 27.6003 19.643C27.3443 19.899 26.9972 20.0428 26.6352 20.0428H10.1616C9.79962 20.0428 9.45248 19.899 9.19653 19.643C8.94058 19.3871 8.79679 19.0399 8.79679 18.678C8.79679 18.316 8.94058 17.9689 9.19653 17.7129C9.45248 17.457 9.79962 17.3132 10.1616 17.3132H26.6352Z" fill="black"/>
</svg>
