<svg width="19" height="14" viewBox="0 0 19 14" fill="none" xmlns="http://www.w3.org/2000/svg">
<path fill-rule="evenodd" clip-rule="evenodd" d="M0.192702 3.89399C-0.0874415 6.23246 -0.074954 8.92949 0.314869 11.2585C0.530567 12.5471 1.70124 13.5351 3.14631 13.6479L4.65654 13.7659C7.80558 14.0118 10.9724 14.0118 14.1215 13.7659L15.6317 13.6479C17.0768 13.5351 18.2475 12.5471 18.4632 11.2585C18.853 8.92948 18.8655 6.23262 18.5853 3.89413C18.5491 3.62303 18.5084 3.35228 18.4632 3.082C18.2475 1.79332 17.0768 0.805387 15.6317 0.692531L14.1215 0.574586C10.9724 0.328654 7.80558 0.328654 4.65654 0.574586L3.14631 0.692531C1.70124 0.805387 0.530567 1.79332 0.314869 3.082C0.269637 3.35224 0.228914 3.62293 0.192702 3.89399ZM4.78644 1.91714C7.84905 1.67796 10.929 1.67796 13.9916 1.91714L15.5018 2.03509C16.2562 2.094 16.8672 2.6097 16.9798 3.28239C16.9915 3.35225 17.0029 3.42214 17.014 3.49206L11.453 6.26766C10.1694 6.90833 8.60859 6.90833 7.325 6.26766L1.76406 3.49209C1.77512 3.42216 1.7865 3.35226 1.79819 3.28239C1.91079 2.6097 2.52188 2.094 3.27621 2.03509L4.78644 1.91714ZM17.1975 4.94207C17.3915 6.97945 17.3189 9.03219 16.9798 11.0581C16.8672 11.7308 16.2562 12.2465 15.5018 12.3054L13.9916 12.4233C10.929 12.6625 7.84905 12.6625 4.78644 12.4233L3.27621 12.3054C2.52188 12.2465 1.91079 11.7308 1.79819 11.0581C1.4591 9.0322 1.38654 6.97947 1.58051 4.9421L6.59653 7.44569C8.33316 8.31247 10.4448 8.31247 12.1814 7.44569L17.1975 4.94207Z" fill="#849C5D"/>
</svg>
