<svg width="14" height="27" viewBox="0 0 14 27" fill="none" xmlns="http://www.w3.org/2000/svg">
<path d="M10.1034 0C8.41155 0 6.78895 0.720901 5.59259 2.00411C4.39624 3.28732 3.72414 5.02773 3.72414 6.84247V10.6521H0.310345C0.138946 10.6521 0 10.8011 0 10.9849V16.0151C0 16.1989 0.138946 16.3479 0.310345 16.3479H3.72414V26.6671C3.72414 26.851 3.86308 27 4.03448 27H8.72414C8.89554 27 9.03448 26.851 9.03448 26.6671V16.3479H12.4785C12.6209 16.3479 12.7451 16.244 12.7796 16.0958L13.952 11.0657C14.001 10.8556 13.8528 10.6521 13.6509 10.6521H9.03448V6.84247C9.03448 6.53838 9.14711 6.24674 9.34758 6.03171C9.54805 5.81669 9.81994 5.69589 10.1034 5.69589H13.6897C13.8611 5.69589 14 5.54686 14 5.36301V0.332877C14 0.149034 13.8611 0 13.6897 0H10.1034Z" fill="#849C5D"/>
</svg>
