<svg width="27" height="27" viewBox="0 0 27 27" fill="none" xmlns="http://www.w3.org/2000/svg">
<path d="M5.29373 0.00683594C2.38537 0.00683594 0.00505066 2.3871 0.00505066 5.29551V21.7072C0.00505066 24.6156 2.38532 26.995 5.29373 26.995H21.7054C24.6138 26.995 26.9932 24.6156 26.9932 21.7072V5.29551C26.9932 2.38716 24.6138 0.00683594 21.7054 0.00683594H5.29373ZM6.62391 4.46043C8.01841 4.46043 8.87736 5.37589 8.90387 6.57926C8.90387 7.75605 8.01835 8.69724 6.59694 8.69724H6.57077C5.20282 8.69724 4.31865 7.75611 4.31865 6.57926C4.31865 5.37592 5.22958 4.46043 6.62388 4.46043H6.62391ZM18.6411 10.0848C21.3229 10.0848 23.3334 11.8377 23.3334 15.6046V22.6367H19.2577V16.076C19.2577 14.4274 18.6678 13.3027 17.1928 13.3027C16.0668 13.3027 15.3956 14.0608 15.101 14.7931C14.9933 15.0551 14.9669 15.4211 14.9669 15.7876V22.6367H10.8911C10.8911 22.6367 10.9446 11.5231 10.8911 10.3724H14.9677V12.1092C15.5093 11.2735 16.4781 10.0848 18.6411 10.0848V10.0848ZM4.55906 10.3733H8.63479V22.6367H4.55906V10.3733Z" fill="#849C5D"/>
</svg>
