<svg width="182" height="179" viewBox="0 0 182 179" fill="none" xmlns="http://www.w3.org/2000/svg">
<g clip-path="url(#clip0_508_13480)">
<path d="M181.783 9.26162C181.657 8.79268 181.126 8.12508 180.734 8.08926C178.503 7.8841 176.137 7.33699 174.045 7.85479C169.778 8.90991 165.553 10.3135 161.499 12.033C155.014 14.7847 148.588 17.7091 142.323 20.9234C135.864 24.2353 129.466 27.7328 123.334 31.6146C118.429 34.7181 113.974 38.5316 109.286 41.99C108.872 42.2962 108.098 42.5827 107.729 42.3971C106.048 41.5634 104.381 40.6548 102.859 39.5606C102.358 39.1992 102.108 38.1961 102.099 37.483C102.069 35.1122 102.251 32.7382 102.257 30.3674C102.267 26.6419 102.212 22.9164 102.163 19.1909C102.105 14.7554 102.044 10.32 101.943 5.88782C101.93 5.24954 101.865 4.49402 101.522 4.00879C100.988 3.25653 100.279 2.39354 99.4794 2.16558C98.9969 2.0288 97.9415 2.85923 97.5951 3.50077C96.4651 5.58171 95.3773 7.71475 94.5743 9.93573C90.8834 20.1125 91.994 29.7063 98.3494 38.5576C100.004 40.86 100.195 44.3576 98.4563 46.559C97.7116 45.6699 96.954 44.8558 96.3065 43.9635C95.5748 42.9605 94.979 41.8598 94.2635 40.8437C89.8442 34.5716 88.6139 27.6254 89.4557 20.0604C89.8539 16.4879 89.501 12.8276 89.433 9.20952C89.4265 8.87083 89.0769 8.36281 88.7758 8.2586C88.4585 8.14788 87.8886 8.31396 87.6458 8.56797C87.2897 8.93596 87.0631 9.47004 86.8947 9.97155C85.2921 14.7066 85.4539 19.5849 85.9493 24.447C86.4608 29.4588 88.4844 34.3241 87.3998 39.4955C87.3901 39.5476 87.4159 39.603 87.4127 39.6583C87.1731 43.8137 86.9497 47.9691 86.6681 52.1212C86.6292 52.6911 86.3022 53.2414 86.1112 53.7983C85.9299 53.7983 85.7486 53.8048 85.5673 53.8048C84.8161 51.6295 83.8966 49.4964 83.3462 47.2722C81.5494 40.0296 81.9864 32.7349 83.0452 25.4304C83.3139 23.5742 83.3268 21.6626 83.2556 19.7836C83.2362 19.2755 82.4753 18.7968 82.0577 18.3051C81.6724 18.7643 81.0443 19.1713 80.9407 19.6891C80.604 21.3825 80.3223 23.1053 80.2608 24.828C80.0212 31.2466 80.3094 37.7207 79.5809 44.0807C78.7585 51.2615 77.1462 58.3575 75.6731 65.447C75.3137 67.1828 74.8119 69.1335 72.8304 70.4589C72.2865 69.1823 71.626 68.1011 71.367 66.9288C70.5965 63.454 70.0493 59.9304 69.2982 56.4492C68.0161 50.5092 68.5827 44.5171 68.6442 38.5348C68.6733 35.7179 68.7381 32.901 68.6507 30.0873C68.6345 29.5142 68.0193 28.9573 67.6794 28.3939C67.2002 28.8433 66.7016 29.2764 66.2483 29.7519C66.1156 29.8919 66.0962 30.1524 66.0379 30.3609C65.0957 33.803 64.9468 37.2941 65.4098 40.8242C65.8372 44.0905 66.4296 47.3503 66.5786 50.6297C66.6951 53.2512 66.4135 55.9216 66.0249 58.5301C65.2479 63.7666 64.3673 68.9934 63.3312 74.1844C63.056 75.5717 62.0588 76.8124 61.1815 78.5319C59.5594 75.9299 58.219 73.8034 57.9244 71.3023C57.4776 67.4954 57.1797 63.6657 57.0146 59.836C56.924 57.7941 57.2413 55.7327 57.374 53.6811C57.6751 48.9819 58.0215 44.2827 58.2514 39.5769C58.3226 38.105 58.0895 36.62 57.9924 35.1382C57.7917 35.0731 57.5942 35.008 57.3934 34.9428C57.0535 35.4932 56.4642 36.0208 56.4157 36.5972C55.998 41.5016 55.6289 46.4092 55.3505 51.3233C55.2242 53.5638 55.3278 55.8174 55.3278 58.0677C55.1238 58.0937 54.9231 58.1198 54.7191 58.1458C54.3598 56.9376 54.1202 55.6741 53.6184 54.5245C51.0121 48.5585 50.8923 42.1073 50.0116 35.8156C49.3771 31.276 49.2184 26.6679 48.6259 22.1185C48.2989 19.6012 45.4854 18.4874 43.4004 19.8813C42.6525 20.3828 41.9467 21.0308 41.4028 21.7505C38.1781 26.0264 35.97 30.8917 34.5293 35.9719C32.9558 41.5243 31.8065 47.2364 30.9809 52.9516C29.7927 61.1842 28.5008 69.42 28.8181 77.8187C29.1613 86.911 31.5474 95.3032 36.4233 102.976C37.5176 104.698 39.3016 105.197 40.7488 103.78C41.9694 102.585 42.9407 101.031 43.695 99.4748C44.6534 97.5013 45.5826 95.4236 45.9775 93.2906C46.5571 90.1676 46.6251 86.9533 46.9618 83.7847C47.0751 82.7263 47.3503 81.6875 47.5543 80.6389C48.1079 81.7135 48.2763 82.8077 48.7263 83.7652C49.1763 84.7193 49.9113 85.5367 50.5199 86.4128C51.2678 85.4879 52.3104 84.677 52.7021 83.6186C53.586 81.2478 54.1267 78.7468 54.8487 76.3109C55.0915 75.4935 55.4573 74.7152 55.9268 73.5103C57.2672 75.8192 58.3259 77.6298 59.3716 79.4535C60.3364 81.1339 61.2041 81.1762 62.3956 79.6456C63.7489 77.9066 64.4515 75.9299 64.8303 73.7708C65.3353 70.9018 66.0217 68.0686 66.5171 65.1995C66.9088 62.946 67.1322 60.6599 67.4851 57.9895C67.7862 58.5301 67.9351 58.6897 67.9675 58.8688C68.3237 60.9497 68.5503 63.0567 69.0327 65.1083C69.5119 67.1567 70.1367 69.1856 70.917 71.133C71.1954 71.8266 72.0696 72.6049 72.7624 72.7026C73.2869 72.7775 74.0963 71.9406 74.527 71.3284C75.2069 70.3709 75.7832 69.3028 76.2235 68.2086C78.0819 63.5647 78.9528 58.6734 79.7007 53.756C80.0439 51.4959 80.4 49.2391 80.8079 46.6209C82.0512 49.7244 83.084 52.4208 84.2269 55.0684C84.4956 55.6936 85.0816 56.5241 85.6126 56.5957C86.1079 56.6641 86.7619 55.889 87.2605 55.4005C87.5098 55.1563 87.5908 54.7264 87.7073 54.3682C89.174 49.7993 89.0218 45.087 88.9085 40.378C88.8826 39.248 88.9053 38.118 88.9053 36.988C89.106 36.9652 89.3035 36.9424 89.5042 36.9228C90.2748 38.3297 90.9482 39.8016 91.8353 41.1303C93.6581 43.856 95.591 46.5036 97.4817 49.1838C98.1066 50.0696 98.8383 49.9556 99.2333 49.0958C99.9229 47.5978 100.467 46.0217 100.995 44.4552C101.224 43.7779 101.267 43.0354 101.435 42.0747C102.95 42.8758 104.213 43.5467 106.155 44.5757C104.834 45.6993 103.805 46.6371 102.71 47.4904C94.9111 53.5932 88.7758 61.3177 82.3652 68.7524C78.6679 73.0381 75.3266 77.6461 71.9174 82.176C66.8473 88.9073 61.7318 95.6093 56.8722 102.494C53.2622 107.606 50.0311 112.99 46.6251 118.252C45.7736 119.568 44.8929 120.867 44.0414 122.183C41.1664 126.618 38.4533 131.171 35.384 135.463C31.8097 140.468 27.9375 145.259 24.1721 150.121C20.8374 154.426 17.4961 158.731 14.0966 162.984C11.8044 165.85 9.43445 168.657 7.03536 171.435C5.80183 172.865 4.4485 174.193 3.09193 175.509C2.73903 175.851 2.17245 175.968 1.70623 176.19C1.51845 175.724 1.26591 175.271 1.16231 174.786C1.06194 174.317 1.11051 173.816 1.10727 173.327C1.10403 171.686 1.10727 170.048 1.10727 168.406C0.900061 168.397 0.69609 168.384 0.488882 168.374C0.307575 171.816 0.113317 175.258 0 178.704C0 178.782 1.06518 179.137 1.33714 178.945C2.78112 177.916 4.29633 176.906 5.4813 175.61C8.46963 172.347 11.3997 169.015 14.1646 165.56C17.8296 160.978 21.2906 156.233 24.8909 151.599C26.568 149.44 28.4911 147.467 30.097 145.256C33.3346 140.804 36.5075 136.306 39.5638 131.728C43.122 126.394 46.515 120.945 50.0019 115.562C50.8243 114.292 51.7956 113.12 52.5985 111.837C54.7677 108.375 56.6844 104.734 59.0608 101.425C64.6069 93.7074 70.1594 85.9829 76.0907 78.5644C82.1548 70.9799 88.5006 63.6071 95.0568 56.4492C98.4951 52.6943 102.626 49.5746 106.499 46.2333C106.949 45.8425 107.836 45.582 108.373 45.7448C110.257 46.318 112.035 47.2559 113.929 47.7769C118.478 49.0275 123.078 49.9523 127.721 48.1677C129.214 47.5946 130.629 46.7837 132.15 46.3343C136.809 44.9568 140.762 42.1985 144.945 39.8961C145.57 39.5509 146.066 38.9679 146.694 38.6325C148.811 37.5025 151.032 36.5483 153.088 35.3141C157.511 32.6633 161.787 29.7617 166.255 27.189C171.912 23.9357 177.134 20.259 180.763 14.648C181.861 12.9513 182.298 11.1928 181.78 9.25836L181.783 9.26162ZM45.9743 46.4678C45.9096 52.6813 46.3531 58.9013 46.6801 67.9122C46.3661 72.9729 46.0196 80.8212 45.343 88.6402C44.9804 92.8379 44.2066 97.0226 41.4902 100.53C39.7451 102.783 38.4274 102.797 36.9705 100.348C33.7814 94.9938 31.9327 89.2004 30.8384 83.0422C29.4009 74.9301 30.4564 66.9483 31.473 58.9632C32.195 53.2805 33.2083 47.6174 34.4451 42.0226C35.8859 35.5193 37.6763 29.0876 41.814 23.6458C41.9435 23.4732 42.0406 23.2746 42.1766 23.1085C43.0831 21.9915 44.0965 20.855 45.657 21.1611C47.2402 21.4705 47.5608 22.9913 47.755 24.3199C48.0593 26.4009 48.1856 28.5111 48.3572 30.6116C48.3863 30.9796 48.3961 31.4258 48.2212 31.7254C45.5372 36.3399 46.0229 41.495 45.9711 46.4678H45.9743ZM54.2076 72.3314C53.6863 75.132 52.7636 77.861 51.9218 80.5933C51.7535 81.1371 51.1772 81.5572 50.7887 82.0327C50.4001 81.5149 49.7915 81.0459 49.6523 80.4663C48.3475 75.0604 48.1953 69.5568 48.3799 64.0239C48.5061 60.2952 48.532 56.5664 48.7036 52.8409C48.8234 50.278 49.1148 47.7216 49.3317 45.1619L49.9566 45.0968C51.1351 49.8481 52.3071 54.6027 53.4953 59.3508C53.6637 60.0249 53.981 60.6664 54.0975 61.347C54.3242 62.6985 54.6026 64.063 54.5994 65.421C54.5929 67.7266 54.622 70.0779 54.2044 72.3281L54.2076 72.3314ZM67.456 41.4592L67.1225 41.4853C67.0221 39.4825 66.9218 37.4764 66.8214 35.4737L67.456 35.4476V41.4592V41.4592ZM88.1574 22.0306L87.743 22.0241V15.3709C87.8822 15.3709 88.0182 15.3742 88.1574 15.3774V22.0306V22.0306ZM100.748 30.4651C100.706 32.5981 100.557 34.7247 100.172 36.9C97.0317 33.6239 95.6395 29.5988 94.8625 25.3718C93.4606 17.7612 94.474 10.6098 99.7222 3.99576C100.107 5.00204 100.603 5.725 100.629 6.46424C100.774 10.5675 100.849 14.674 100.865 18.7773C100.881 22.6721 100.826 26.5702 100.752 30.4651H100.748ZM180.158 12.7201C178.432 16.6898 175.36 19.5426 171.97 21.9492C168.82 24.1864 165.329 25.9352 162.014 27.9445C160.402 28.9215 158.88 30.0482 157.265 31.0219C151.961 34.2166 146.652 37.4015 141.309 40.5311C135.864 43.7193 130.049 46.0412 123.781 46.7544C119.339 47.2592 114.984 46.3213 110.931 44.3022C110.523 44.097 110.189 43.7421 109.6 43.2829C111.737 41.6025 113.602 39.8798 115.703 38.5251C122.894 33.8779 129.949 28.9508 137.47 24.9061C145.269 20.7149 153.512 17.3346 161.642 13.7915C165.083 12.2902 168.677 11.0755 172.307 10.1246C174.33 9.59379 176.577 9.68172 178.694 9.84129C180.517 9.97806 180.909 10.9843 180.155 12.7201H180.158Z" fill="black"/>
<path d="M68.9712 1.74225C70.1302 2.43915 71.3994 2.94392 72.6329 3.51381C72.756 3.35424 72.8758 3.19141 72.9988 3.03184C72.1894 2.06139 71.4447 1.0258 70.535 0.166071C70.263 -0.0879403 69.3014 -0.0390919 69.0586 0.234459C68.7834 0.543832 68.751 1.60873 68.9744 1.74225H68.9712Z" fill="black"/>
<path d="M59.1579 8.18042C58.2061 10.2776 55.3343 9.86406 54.9684 12.4661C57.2089 12.5312 59.2486 10.5284 59.1579 8.18042Z" fill="black"/>
</g>
<defs>
<clipPath id="clip0_508_13480">
<rect width="182" height="179" fill="white"/>
</clipPath>
</defs>
</svg>
