<svg width="25" height="27" viewBox="0 0 25 27" fill="none" xmlns="http://www.w3.org/2000/svg">
<path d="M13.4969 11.1313C15.1327 11.4279 16.7075 11.9484 18.0439 13.0985C18.3212 13.3406 18.4709 13.6675 18.6428 13.9822C18.97 14.5815 19.1252 15.3199 19.8184 15.6226C19.9071 15.6589 20.0236 15.8768 19.9958 15.9313C19.2528 17.3295 19.9515 18.7943 19.8018 20.2289C19.5079 22.9769 18.36 25.1015 16.1641 26.53C14.8166 27.4017 12.6318 27.0324 11.0515 25.6584C9.01638 23.8909 7.81308 21.6332 8.0238 18.7701C8.15688 16.9179 8.55059 15.0839 9.36018 13.3951C10.2363 11.5671 11.5283 10.647 13.508 11.1252L13.4969 11.1313ZM13.5412 25.5252C12.0052 24.7928 11.3897 23.3341 10.2197 22.2929C10.5191 24.0422 11.972 25.5192 13.5412 25.5252ZM15.2436 12.9169C15.1216 13.7038 15.7094 13.7219 16.2085 14.2243C16.0033 13.4375 15.7593 13.0864 15.2436 12.9169ZM17.9996 21.3971C18.1493 21.3305 18.2158 21.2337 18.1493 21.0581C17.9663 21.1066 17.9386 21.2276 17.9996 21.3971ZM17.9441 21.7663C17.9441 21.7663 17.8887 21.7966 17.8831 21.8087C17.8831 21.8571 17.8887 21.9056 17.8942 21.9479C17.9164 21.9358 17.9497 21.9237 17.9497 21.9056C17.9497 21.8571 17.9497 21.8148 17.9386 21.7603L17.9441 21.7663Z" fill="#D4B865"/>
<path d="M16.7894 6.19612C16.6539 7.12517 16.3337 8.15376 15.1205 8.72889C14.8619 8.85055 14.5724 8.97221 14.283 8.99433C12.4047 9.13259 9.77518 6.71041 10.0154 5.08457C10.2001 3.83478 10.6681 2.64028 11.1854 1.49003C11.9675 -0.235355 13.9197 -0.528448 15.102 0.959141C16.2721 2.43014 17.5099 4.01174 16.7832 6.19612H16.7894Z" fill="#D4B865"/>
<path d="M4.82605 6.1363C5.95581 6.25845 6.79439 7.00359 7.45244 8.00526C8.41332 9.45889 8.08138 11.2545 6.67792 12.2745C6.1771 12.641 5.69375 13.0197 5.25699 13.4716C4.72123 14.0274 3.90012 14.1252 3.277 13.8564C2.39183 13.4777 1.55907 12.9097 0.86608 12.1951C-0.217088 11.0713 -0.281147 9.44056 0.656434 7.70598C1.41349 6.30731 2.92759 5.71487 4.82605 6.13019V6.1363Z" fill="#D4B865"/>
<path d="M19.2511 7.39736C19.4508 6.7357 19.3073 5.95569 19.9749 5.43926C20.8796 4.73994 22.5767 4.90671 23.3878 5.719C25.4842 7.82234 25.5403 10.0817 23.5313 12.2657C23.0758 12.7606 22.3957 13.1157 21.6595 12.965C20.5988 12.7445 19.8189 12.142 19.4071 11.2651C18.8082 9.99561 18.9704 8.69917 19.2574 7.39736H19.2511ZM21.8217 9.99561C22.2959 9.67822 22.5393 9.29629 22.2834 8.77986C22.1275 9.18332 21.9715 9.59215 21.8217 9.99561Z" fill="#D4B865"/>
</svg>
