<svg width="27" height="29" viewBox="0 0 27 29" fill="none" xmlns="http://www.w3.org/2000/svg">
<path d="M13.5538 11.9028C14.7297 13.078 15.728 14.4026 16.1719 16.1089C16.262 16.4658 16.1989 16.8198 16.1611 17.1764C16.0888 17.8553 15.796 18.5508 16.1936 19.1942C16.2458 19.2746 16.2175 19.5201 16.1637 19.5491C14.7567 20.2755 14.4972 21.8775 13.5573 22.9716C11.7511 25.0634 9.59784 26.1565 6.97929 26.0807C5.37527 26.0301 3.78937 24.4826 3.27245 22.4533C2.60571 19.8416 2.90192 17.3004 4.70522 15.0666C5.86918 13.6197 7.23705 12.3361 8.86412 11.4087C10.6251 10.4047 12.2112 10.384 13.5663 11.9042L13.5538 11.9028ZM5.39511 23.7613C4.54935 22.2847 4.87388 20.735 4.50475 19.213C3.75496 20.8215 4.10845 22.8629 5.39511 23.7613ZM13.9731 14.3653C13.4248 14.9427 13.8977 15.2923 14.022 15.9895C14.3013 15.2258 14.3006 14.7982 13.9731 14.3653ZM11.4106 22.9059C11.5716 22.9364 11.6815 22.8947 11.7267 22.7125C11.5487 22.6481 11.457 22.7319 11.4106 22.9059ZM11.1548 23.1779C11.1548 23.1779 11.092 23.1712 11.0805 23.178C11.053 23.2178 11.03 23.2608 11.0104 23.2988C11.0355 23.3015 11.0698 23.3104 11.0801 23.2955C11.1077 23.2557 11.1318 23.2209 11.1537 23.1698L11.1548 23.1779Z" fill="white"/>
<path d="M19.0703 9.72008C18.43 10.4067 17.5811 11.07 16.2563 10.8521C15.9744 10.8049 15.6672 10.7401 15.4167 10.5935C13.7938 9.63775 13.0111 6.14936 14.1342 4.9495C14.9977 4.02723 16.0625 3.31171 17.1427 2.6606C18.768 1.68745 20.5397 2.55795 20.6648 4.45408C20.7892 6.32956 20.9063 8.33452 19.0653 9.71657L19.0703 9.72008Z" fill="white"/>
<path d="M9.26936 2.85974C10.1286 3.60339 10.3937 4.69341 10.3644 5.89153C10.3267 7.63363 9.0315 8.92085 7.29699 8.96033C6.67663 8.97646 6.06367 9.01257 5.44728 9.13547C4.69039 9.28736 3.95972 8.9002 3.60046 8.3245C3.08837 7.50922 2.72715 6.56813 2.5643 5.58611C2.31367 4.04552 3.18947 2.66841 4.94783 1.77622C6.36653 1.0574 7.94858 1.43241 9.27283 2.85472L9.26936 2.85974Z" fill="white"/>
<path d="M20.4102 12.1092C20.9511 11.6789 21.2772 10.956 22.12 10.9115C23.2619 10.8517 24.5622 11.955 24.7665 13.0846C25.2924 16.0073 24.0522 17.8967 21.1571 18.5484C20.5009 18.6959 19.7397 18.6006 19.2202 18.0576C18.4738 17.2724 18.1756 16.333 18.3363 15.3777C18.5667 13.993 19.4382 13.0196 20.4153 12.1128L20.4102 12.1092ZM21.0442 15.7088C21.6147 15.7178 22.0322 15.5424 22.1159 14.9722C21.758 15.2151 21.397 15.4624 21.0442 15.7088Z" fill="white"/>
</svg>
