<svg width="28" height="24" viewBox="0 0 28 24" fill="none" xmlns="http://www.w3.org/2000/svg">
<path d="M27.9729 3.28315C28.0561 3.16409 27.9332 3.01036 27.8002 3.06332C26.8546 3.4397 25.8663 3.69364 24.8582 3.81878C25.9807 3.1302 26.8468 2.082 27.3271 0.841018C27.376 0.7146 27.2416 0.601705 27.1256 0.66747C26.0824 1.25908 24.9573 1.68508 23.7886 1.93043C23.7397 1.9407 23.6893 1.9236 23.6549 1.88638C22.7779 0.936071 21.6234 0.30334 20.3649 0.084689C19.0799 -0.138554 17.759 0.0824882 16.6096 0.71315C15.4601 1.34381 14.547 2.34842 14.0134 3.56942C13.5061 4.73035 13.3692 6.02447 13.6194 7.26732C13.6388 7.36375 13.5653 7.45479 13.4696 7.44869C11.1957 7.30366 8.97396 6.68258 6.94127 5.62286C4.91376 4.56584 3.11833 3.09534 1.66436 1.30206C1.59983 1.22247 1.47753 1.23277 1.43051 1.32439C0.978083 2.206 0.741202 3.18861 0.741846 4.1873C0.740009 5.1814 0.97758 6.16054 1.43341 7.03755C1.88923 7.91456 2.54917 8.66221 3.35446 9.21395C2.50044 9.19009 1.66308 8.97328 0.901543 8.5802C0.803401 8.52954 0.68568 8.60167 0.690785 8.71434C0.750169 10.0252 1.21879 11.3411 2.02994 12.3508C2.89314 13.4252 4.09123 14.1605 5.42158 14.4322C4.90947 14.5923 4.37779 14.6766 3.84253 14.6828C3.5512 14.6793 3.26045 14.6573 2.97195 14.6168C2.86497 14.6017 2.77763 14.7061 2.81507 14.8101C3.21187 15.9119 3.91286 16.8734 4.83456 17.5752C5.81997 18.3256 7.00863 18.7418 8.23516 18.7661C6.16402 20.4395 3.60694 21.3529 0.971526 21.3605C0.700728 21.3614 0.430051 21.3524 0.160011 21.3335C0.00783659 21.3228 -0.062151 21.531 0.0690184 21.6109C2.6368 23.1757 5.57171 24.0028 8.56532 23.9991C10.7755 24.0226 12.9682 23.5937 15.0152 22.7374C17.0622 21.881 18.9225 20.6144 20.4874 19.0115C22.0524 17.4086 23.2906 15.5015 24.1298 13.4017C24.969 11.3019 25.3923 9.0514 25.375 6.7817V6.07439C25.375 6.02785 25.3965 5.98408 25.4326 5.95604C26.4063 5.2011 27.2626 4.29978 27.9729 3.28315Z" fill="#849C5D"/>
</svg>
